<?xml version="1.0" encoding="UTF-8"?>
<svg id="Camada_1" xmlns="http://www.w3.org/2000/svg" version="1.1" viewBox="0 0 1080 997.49">
  <!-- Generator: Adobe Illustrator 29.8.3, SVG Export Plug-In . SVG Version: 2.1.1 Build 3)  -->
  <defs>
    <style>
      .st0 {
        fill: #006641;
      }

      .st1 {
        fill: #10b981;
      }
    </style>
  </defs>
  <rect class="st1" x="261.93" y="269" width="123.34" height="680.75"/>
  <rect class="st1" x="431.52" y="160.48" width="123.34" height="707.44"/>
  <rect class="st1" x="601.12" y="53.15" width="123.34" height="737.68"/>
  <polygon class="st0" points="385.27 949.75 261.93 949.75 261.93 714.92 385.27 649.69 385.27 949.75"/>
  <polygon class="st0" points="554.87 867.91 431.52 867.91 431.52 609.37 554.87 514.2 554.87 867.91"/>
  <polygon class="st0" points="724.46 790.83 601.12 790.83 601.12 479.51 724.46 378.11 724.46 790.83"/>
  <path class="st0" d="M207.37,461.12s-183.09,171.04-103.7,253.39C228.13,843.6,918.96,160.48,918.96,160.48l-39.73-36.77,150.62-40.32-26.09,155.36-36.77-34.39s-148.4,146.8-316.36,289.53c-155.57,132.2-328.02,260.33-412.42,279.15-175.52,39.14-192.19-51.76-187.38-104.37,10.08-110.3,156.55-207.55,156.55-207.55Z"/>
</svg>